<?xml version="1.0" encoding="utf-8"?>
<!-- Generator: Adobe Illustrator 26.0.1, SVG Export Plug-In . SVG Version: 6.00 Build 0)  -->
<svg version="1.1" id="Layer_1" xmlns="http://www.w3.org/2000/svg" xmlns:xlink="http://www.w3.org/1999/xlink" x="0px" y="0px"
	 viewBox="0 0 841.89 595.28" style="enable-background:new 0 0 841.89 595.28;" xml:space="preserve">
<style type="text/css">
	<!-- .st0{fill:#FFFFFF;stroke:#000000;stroke-miterlimit:10;} -->
	.st1{fill:#FFFFFF;}
	.st2{fill:#BE1622;}
</style>
<path class="st0" d="M420.96,244.7h-0.02c0.01-0.71,0.01-1.42,0.01-2.13C420.95,243.28,420.95,243.99,420.96,244.7z"/>
<g>
	<path class="st1" d="M96.31,242.57c0,0,90.3,147.13,324.65,2.13s363.35,52.94,363.35,52.94"/>
	<path class="st2" d="M96.9,242.2c16.21,19.7,37.65,34.9,60.94,45.04c46.81,20.53,100.3,17.48,149.08,5.86c0,0,5.74-1.49,5.74-1.49
		c8.67-2.03,17.1-5.11,25.61-7.79c6.38-2.42,13.11-5.12,19.42-7.67c10.87-4.97,21.67-10.07,32.05-16.01
		c3.09-1.72,7.45-4.03,10.39-5.89c9.12-5.57,21.46-13.41,30.42-19.24c13.08-8.22,28.49-16.94,42.42-23.55
		c81.65-38.44,170.71-38.38,245.59,15.41c19.88,14.14,37.66,31.19,52.66,50.39c4.95,6.4,9.61,12.98,13.65,20
		c0,0-1.17,0.76-1.17,0.76c-4.95-6.21-10.4-12.06-15.96-17.73c-53.55-54.27-122.7-85.84-199.63-80.82
		c-39.15,2.51-77.19,14.75-112.84,30.81c-17.61,8.05-35.94,18.58-52.79,28.09c-16.52,8.83-36.72,19.3-53.94,26.82
		c-40.46,18.53-84.58,32.98-129.74,28.99c-32.82-2.46-65.29-14.02-91.06-34.72c-12.67-10.25-24.08-22.28-32.05-36.54
		C95.71,242.94,96.9,242.2,96.9,242.2L96.9,242.2z"/>
</g>
</svg>
